<?xml version="1.0" standalone="no"?>
<!DOCTYPE svg PUBLIC "-//W3C//DTD SVG 20010904//EN"
 "http://www.w3.org/TR/2001/REC-SVG-20010904/DTD/svg10.dtd">
<svg version="1.0" xmlns="http://www.w3.org/2000/svg"
 width="2000.000000pt" height="666.000000pt" viewBox="0 0 2000.000000 666.000000"
 preserveAspectRatio="xMidYMid meet">

<g transform="translate(0.000000,666.000000) scale(0.100000,-0.100000)"
fill="#046380" stroke="none">
<path d="M3085 6639 c-1511 -116 -2762 -1256 -3015 -2749 -34 -202 -44 -330
-44 -560 0 -230 10 -358 44 -560 190 -1121 955 -2076 2011 -2510 866 -356
1855 -327 2694 79 857 415 1471 1137 1750 2057 89 292 128 576 129 924 1 269
-8 378 -50 610 -170 934 -740 1755 -1559 2247 -584 351 -1276 514 -1960 462z
m430 -299 c963 -62 1811 -550 2339 -1345 269 -406 426 -839 487 -1350 16 -129
16 -490 0 -625 -81 -709 -368 -1314 -861 -1811 -535 -540 -1202 -841 -1974
-889 -630 -40 -1294 140 -1826 495 -187 124 -312 227 -470 385 -495 493 -796
1126 -870 1830 -15 135 -15 465 0 600 62 587 286 1135 650 1590 107 133 325
352 455 455 490 391 1088 626 1695 664 184 12 201 12 375 1z"/>
<path d="M1957 4938 c-15 -14 -104 -202 -232 -492 l-208 -469 6 -86 c3 -60 12
-105 31 -151 51 -127 172 -246 297 -291 l59 -22 0 -591 c0 -664 0 -660 72
-799 73 -140 198 -246 360 -305 l73 -27 945 0 945 0 65 23 c35 13 84 35 108
49 137 81 251 247 282 412 6 32 10 291 10 643 0 552 1 589 18 594 90 29 152
64 212 121 107 100 160 223 160 367 0 67 -7 88 -185 536 -102 257 -192 476
-200 486 -13 18 -53 19 -1404 22 l-1390 2 -24 -22z m653 -115 c0 -5 -44 -191
-97 -415 l-97 -408 -368 0 c-259 0 -368 3 -368 11 0 6 73 174 161 372 89 199
170 381 180 405 l18 42 286 0 c157 0 285 -3 285 -7z m688 -410 l2 -413 -376 0
c-353 0 -375 1 -370 18 3 9 46 190 96 402 50 212 93 391 95 398 4 10 64 12
277 10 l273 -3 3 -412z m682 412 c0 -3 43 -185 95 -405 52 -220 95 -404 95
-410 0 -7 -122 -10 -370 -10 l-370 0 0 415 0 415 275 0 c151 0 275 -2 275 -5z
m867 -405 c89 -223 162 -408 162 -412 1 -5 -156 -8 -348 -8 -324 0 -350 1
-355 18 -20 64 -192 803 -188 807 3 3 132 4 286 3 l281 -3 162 -405z m-2435
-550 c-4 -64 -43 -141 -101 -203 -120 -126 -292 -158 -449 -81 -107 52 -196
172 -209 282 l-6 52 384 -2 384 -3 -3 -45z m880 45 c3 -3 1 -28 -3 -56 -25
-155 -142 -276 -301 -308 -198 -41 -411 114 -435 317 l-6 52 370 0 c203 0 372
-2 375 -5z m874 -47 c-21 -158 -147 -289 -309 -318 -196 -37 -404 117 -424
314 l-6 56 373 0 373 0 -7 -52z m861 -5 c-12 -116 -99 -238 -204 -285 -218
-97 -464 28 -514 262 -6 28 -8 57 -5 65 5 13 59 15 367 15 l362 0 -6 -57z
m-2406 -348 c158 -116 347 -132 524 -45 77 37 167 115 203 175 12 20 13 19 29
-5 72 -108 220 -201 351 -221 174 -26 366 53 468 193 l38 51 30 -39 c83 -107
186 -173 306 -198 l65 -13 3 -583 c2 -636 2 -640 -55 -756 -57 -116 -180 -210
-308 -233 -32 -6 -110 -11 -172 -11 l-113 0 0 445 c0 424 -1 449 -21 507 -35
106 -94 175 -188 222 -80 40 -135 46 -449 45 -247 0 -308 -3 -363 -17 -124
-33 -237 -122 -290 -229 -24 -48 -24 -49 -29 -508 l-5 -460 -59 -3 c-88 -5
-192 15 -265 50 -80 38 -186 140 -225 215 -55 110 -56 119 -56 740 l0 572 38
6 c166 27 285 93 367 206 l37 49 40 -56 c22 -31 67 -75 99 -99z m1107 -630
c56 -30 100 -83 120 -144 9 -24 12 -166 12 -472 l0 -439 -540 0 -540 0 0 443
0 442 29 51 c41 70 113 123 198 143 21 5 180 9 353 8 l315 -2 53 -30z"/>
<path d="M15390 5000 c-243 -20 -419 -63 -575 -140 -366 -180 -530 -532 -576
-1230 -12 -189 -7 -586 11 -755 56 -531 194 -836 459 -1013 181 -121 385 -179
720 -203 256 -18 561 4 763 55 388 98 615 328 722 729 61 229 85 428 93 772
13 607 -56 1024 -218 1313 -53 93 -196 241 -286 295 -131 79 -299 132 -511
162 -139 19 -459 27 -602 15z m414 -575 c247 -52 366 -209 421 -555 24 -153
38 -457 31 -670 -21 -635 -120 -867 -406 -955 -33 -10 -106 -19 -185 -22 -408
-17 -585 139 -650 570 -38 259 -43 700 -9 995 46 404 168 584 430 636 93 19
282 19 368 1z"/>
<path d="M9075 4989 c-487 -45 -714 -200 -796 -545 -27 -116 -40 -305 -29
-446 29 -387 183 -609 535 -774 49 -23 278 -106 507 -184 229 -78 440 -156
468 -172 96 -54 140 -173 126 -337 -10 -125 -54 -196 -141 -229 -97 -37 -384
-43 -1076 -22 -183 5 -335 8 -337 5 -4 -4 -52 -498 -49 -501 6 -5 281 -57 392
-74 239 -35 383 -44 730 -45 283 0 360 3 460 19 521 81 715 296 741 824 16
312 -59 584 -204 743 -74 80 -183 157 -305 214 -51 23 -273 102 -494 174 -499
163 -557 192 -610 299 -21 43 -27 72 -31 151 -8 165 35 258 136 298 44 17 91
18 702 18 l655 0 22 225 c13 124 21 230 19 236 -9 25 -345 93 -566 115 -141
14 -730 20 -855 8z"/>
<path d="M18025 4979 c-174 -7 -391 -24 -447 -35 l-28 -6 0 -1609 0 -1609 360
0 360 0 0 601 0 601 43 -6 c245 -35 737 -42 923 -13 258 40 395 97 508 211 77
77 122 153 161 267 72 211 93 586 49 878 -73 492 -306 675 -914 721 -150 11
-736 11 -1015 -1z m925 -540 c241 -39 320 -183 307 -557 -7 -223 -44 -324
-140 -389 -86 -57 -144 -65 -514 -70 l-333 -5 0 516 0 516 308 0 c169 0 336
-5 372 -11z"/>
<path d="M11110 3330 l0 -1610 360 0 360 0 0 725 0 725 570 0 570 0 0 -725 0
-725 360 0 360 0 0 1610 0 1610 -360 0 -360 0 0 -620 0 -620 -570 0 -570 0 0
620 0 620 -360 0 -360 0 0 -1610z"/>
</g>
</svg>
