<?xml version="1.0" standalone="no"?>
<!DOCTYPE svg PUBLIC "-//W3C//DTD SVG 20010904//EN"
 "http://www.w3.org/TR/2001/REC-SVG-20010904/DTD/svg10.dtd">
<svg version="1.0" xmlns="http://www.w3.org/2000/svg"
 width="128.000000pt" height="128.000000pt" viewBox="0 0 128.000000 128.000000"
 preserveAspectRatio="xMidYMid meet">

<g transform="translate(0.000000,128.000000) scale(0.100000,-0.100000)"
fill="#fff" stroke="none">
<path d="M241 1078 c-5 -13 -32 -74 -60 -137 -28 -62 -51 -124 -51 -138 0 -43
31 -93 71 -116 l39 -22 0 -173 c0 -122 4 -182 14 -205 17 -43 78 -95 118 -102
18 -3 155 -5 305 -3 308 3 307 3 351 88 20 41 22 58 22 220 l0 175 33 15 c42
20 77 74 77 119 -1 20 -25 95 -54 166 l-52 130 -402 3 -402 2 -9 -22z m170
-130 l-27 -113 -106 -3 -107 -3 49 112 c28 61 50 113 50 115 0 2 38 4 84 4
l83 0 -26 -112z m219 -3 l0 -115 -106 0 c-85 0 -105 3 -101 14 3 7 16 59 28
115 l23 101 78 0 78 0 0 -115z m219 23 c12 -51 24 -103 27 -115 6 -23 5 -23
-100 -23 l-106 0 0 115 0 115 79 0 79 0 21 -92z m224 -20 l45 -113 -95 -3
c-53 -1 -98 0 -101 2 -5 6 -51 194 -52 214 0 8 22 12 79 12 l79 0 45 -112z
m-693 -158 c0 -35 -51 -81 -96 -87 -36 -5 -45 -1 -77 27 -23 20 -37 41 -37 56
0 24 1 24 105 24 98 0 105 -1 105 -20z m250 -1 c0 -12 -16 -37 -35 -56 -32
-32 -40 -35 -77 -30 -46 6 -83 38 -93 80 l-7 27 106 0 c101 0 106 -1 106 -21z
m245 -6 c-11 -49 -49 -78 -101 -78 -39 0 -50 5 -75 33 -16 18 -29 41 -29 52 0
19 7 20 106 20 l106 0 -7 -27z m245 6 c0 -45 -50 -89 -100 -89 -31 0 -76 29
-89 57 -23 50 -19 53 89 53 94 0 100 -1 100 -21z m-690 -84 c36 -39 93 -50
147 -30 23 9 50 26 58 38 l15 21 28 -27 c57 -55 137 -55 194 0 28 27 28 27 43
6 8 -11 33 -28 55 -37 l40 -16 0 -175 c0 -190 -6 -217 -54 -249 -15 -9 -46
-16 -76 -16 l-50 0 0 125 c0 192 -20 215 -185 215 -173 0 -195 -24 -195 -215
l0 -125 -37 0 c-47 0 -97 30 -118 70 -13 24 -15 61 -13 202 l3 172 31 8 c17 4
41 19 55 32 31 31 31 31 59 1z m340 -205 c18 -18 20 -33 20 -150 l0 -130 -150
0 -150 0 0 127 c0 116 2 129 22 150 20 21 30 23 130 23 95 0 110 -2 128 -20z"/>
</g>
</svg>
