<svg id="a91515ab-d990-45fa-8584-3ebf9f1bab44" data-name="Layer 1" xmlns="http://www.w3.org/2000/svg" width="3000.00005" height="71" viewBox="0 0 3000.00005 71"><defs><style>.aba57ee8-dc6b-4d16-bd42-c4b15a012592{fill:#0a0a0a;}</style></defs><title>wave</title><path class="aba57ee8-dc6b-4d16-bd42-c4b15a012592" d="M0,71l25-5.3c25-5.4,75-16,125-17.4S250,55,300,59.8s100,6.5,150,7.4,100,.8,150-.5,100-4,150-10.5S850,39.3,900,34.3s100-4.6,150.00006-4,100,1.7,150,7.2,100,15.5,150,18.3,100-1.5,125-3.6l25-2.2V0H0Z"/><path class="aba57ee8-dc6b-4d16-bd42-c4b15a012592" d="M3000.00005,0h-1500V50l25,2.2c25,2.1,75,6.5,125,3.6s100-12.8,150-18.3,100-6.5,150-7.2,100-1,150,4,100,15.4,150,21.9,100,9.1,150,10.5,100,1.3,150,.5,100-2.5,150-7.4,100-12.8,150-11.5,100,12,125,17.4l25,5.3Z"/></svg>